<svg data-bbox="0 0 24 24"
     data-type="shape"
     xmlns="http://www.w3.org/2000/svg"
     viewBox="0 0 24 24" width="24" height="24">
    <path d="M8.1816,5.0039 C7.9276,5.0039 7.6696,5.0279 7.4106,5.0759 C5.7326,5.3909 4.3566,6.8479 4.0646,8.6189 C3.9346,9.4039 4.0036,10.2029 4.2616,10.9319 C4.2636,10.9379 4.2656,10.9439 4.2676,10.9499 C5.1716,13.8579 10.2066,17.4019 11.7286,18.4189 C11.8966,18.5329 12.1076,18.5309 12.2746,18.4189 C13.7956,17.4019 18.8266,13.8589 19.7326,10.9499 C19.9966,10.2029 20.0646,9.4039 19.9356,8.6189 C19.6426,6.8479 18.2666,5.3909 16.5896,5.0759 C14.9596,4.7749 13.3646,5.4459 12.4126,6.8369 C12.2256,7.1099 11.7736,7.1099 11.5876,6.8369 C10.7866,5.6669 9.5276,5.0039 8.1816,5.0039 M12.0016,19.5029 C11.7136,19.5029 11.4246,19.4189 11.1726,19.2509 C9.1366,17.8899 4.2966,14.3869 3.3156,11.2559 C3.0036,10.3719 2.9216,9.4039 3.0776,8.4569 C3.4436,6.2429 5.1106,4.4889 7.2266,4.0939 C9.0226,3.7539 10.8006,4.3809 11.9996,5.7409 C13.1996,4.3829 14.9766,3.7569 16.7736,4.0939 C18.8896,4.4899 20.5566,6.2429 20.9216,8.4569 C21.0786,9.4069 20.9956,10.3789 20.6816,11.2659 C19.7116,14.3819 14.8676,17.8889 12.8306,19.2509 C12.5786,19.4189 12.2896,19.5029 12.0016,19.5029"
          fill-rule="evenodd"></path>
</svg>
